<svg width="221" height="55" viewBox="0 0 221 55" fill="none" xmlns="http://www.w3.org/2000/svg">
<path d="M12.6765 0.00393702C12.6558 0.00393702 12.6123 0.00393693 12.5901 0.0253284C12.3311 0.0688755 12.1149 0.350021 12.1149 0.631167V5.19825C12.1149 5.2418 12.1149 5.26319 12.1149 5.28458H8.93601C6.9466 5.28458 5.3239 6.90805 5.3239 8.89899V12.081C5.30251 12.081 5.28035 12.081 5.25896 12.081H0.674302C0.652911 12.081 0.630755 12.081 0.609363 12.081C0.306826 12.1024 0.0256808 12.4057 0.0256808 12.7304C0.0470723 13.0329 0.349609 13.3148 0.674302 13.2934H5.25896C5.28035 13.3148 5.30251 13.3148 5.3239 13.2934V16.3234C5.30251 16.3234 5.28035 16.3234 5.25896 16.3234H0.674302C0.652911 16.3234 0.630755 16.3234 0.609363 16.3234C0.306826 16.3234 0.0256808 16.6481 0.0256808 16.9506C0.0470723 17.2753 0.349609 17.5564 0.674302 17.535H5.25896C5.28035 17.535 5.30251 17.535 5.3239 17.535V20.565C5.30251 20.5436 5.28035 20.5436 5.25896 20.565H0.674302C0.630755 20.5436 0.587972 20.5436 0.565816 20.565C0.241888 20.5864 -0.0178664 20.9111 0.00352508 21.2144C0.0470721 21.5391 0.349609 21.7988 0.673538 21.7767H5.2582C5.27959 21.7767 5.30174 21.7767 5.32314 21.7767V24.7639C5.30174 24.7639 5.27959 24.7639 5.2582 24.7639H0.673538C0.652146 24.7639 0.629991 24.7639 0.608599 24.7639C0.306062 24.7852 0.0249165 25.0885 0.0249165 25.4132C0.046308 25.7379 0.348845 26.0191 0.673538 25.9977H5.2582C5.27959 25.9977 5.30174 25.9977 5.32314 25.9977V29.0063C5.30174 29.0063 5.27959 29.0063 5.2582 29.0063H0.673538C0.629991 29.0063 0.587208 29.0063 0.565052 29.0063C0.241123 29.0498 -0.0186307 29.3523 0.00276078 29.677C0.0463078 30.0017 0.348846 30.2615 0.672774 30.2393H5.25743C5.27883 30.2393 5.30098 30.2393 5.32237 30.2393V33.2479C5.30098 33.2479 5.27883 33.2479 5.25743 33.2479H0.672774C0.629227 33.2479 0.586444 33.2479 0.564288 33.2479C0.24036 33.2693 -0.0193943 33.594 0.00199722 33.9187C0.0455442 34.2441 0.348081 34.5039 0.67201 34.4817H5.25667C5.27806 34.4817 5.30022 34.4817 5.32161 34.4817V37.4681C5.30022 37.4681 5.27806 37.4681 5.25667 37.4681H0.67201C0.650618 37.4681 0.628463 37.4681 0.607071 37.4681C0.304534 37.4895 0.0233886 37.7928 0.0233886 38.1175C0.0447802 38.4208 0.347317 38.7027 0.67201 38.6806H5.25667C5.27806 38.6806 5.30022 38.6806 5.32161 38.6806V41.7105C5.30022 41.7105 5.27806 41.7105 5.25667 41.7105H0.67201C0.628463 41.7105 0.58568 41.7105 0.563524 41.7105C0.239596 41.7319 -0.0201586 42.0566 0.00123293 42.3821C0.0447799 42.6846 0.347317 42.9665 0.671246 42.923H5.25591C5.2773 42.923 5.29945 42.923 5.32084 42.923V46.1049C5.32084 48.118 6.94278 49.7186 8.93295 49.7186H12.1119C12.1119 49.74 12.1119 49.7835 12.1119 49.8049V54.3728C12.1119 54.6975 12.393 55 12.717 55C13.0424 55 13.3442 54.6975 13.3442 54.3728V49.8049C13.3442 49.7835 13.3442 49.74 13.3442 49.7186H16.3505C16.3505 49.74 16.3505 49.7835 16.3505 49.8049V54.3728C16.3505 54.6975 16.6324 55 16.9563 55C17.281 55 17.5835 54.6975 17.5621 54.3728V49.8049C17.5621 49.7835 17.5621 49.74 17.5621 49.7186H20.5898C20.5898 49.74 20.5898 49.7835 20.5898 49.8049V54.3728C20.5898 54.6975 20.8709 55 21.1956 55C21.5196 55 21.8015 54.6975 21.8015 54.3728V49.8049C21.8015 49.7835 21.8015 49.74 21.8015 49.7186H24.807C24.807 49.74 24.807 49.7835 24.807 49.8049V54.3728C24.7864 54.6975 25.0889 55 25.4128 55C25.7375 55 26.0187 54.6975 26.0187 54.3728V49.8049C26.0187 49.7835 26.0187 49.74 26.0187 49.7186H29.0242C29.0242 49.74 29.0242 49.7835 29.0242 49.8049V54.3728C29.0242 54.6975 29.3267 55 29.6514 55C29.9761 55 30.2565 54.6975 30.2565 54.3728V49.8049C30.2565 49.7835 30.2565 49.74 30.2565 49.7186H33.2635C33.2635 49.74 33.2635 49.7835 33.2635 49.8049V54.3728C33.2635 54.6975 33.566 55 33.8686 55C34.1933 55 34.4958 54.6975 34.4958 54.3728V49.8049C34.4958 49.7835 34.4958 49.74 34.4958 49.7186H37.4799C37.4799 49.74 37.4799 49.7835 37.4799 49.8049V54.3728C37.4799 54.6975 37.7611 55 38.0858 55C38.4105 55 38.713 54.6975 38.713 54.3728V49.8049C38.713 49.7835 38.713 49.74 38.713 49.7186H41.7193C41.7193 49.74 41.7193 49.7835 41.7193 49.8049V54.3728C41.7193 54.6975 42.0004 55 42.3243 55C42.649 55 42.9516 54.6975 42.9302 54.3728V49.8049C42.9302 49.7835 42.9302 49.74 42.9302 49.7186H46.1305C48.1199 49.7186 49.7205 48.1173 49.7205 46.1049V42.923C49.764 42.923 49.7854 42.923 49.8068 42.923H54.3914C54.694 42.923 54.9973 42.6418 54.9973 42.3171C54.9973 41.9917 54.6947 41.7105 54.3914 41.7105H49.8098C49.7885 41.7105 49.7663 41.7105 49.7235 41.7105V38.6806C49.7671 38.6806 49.7885 38.6806 49.8098 38.6806H54.3945C54.697 38.702 55.0003 38.3994 55.0003 38.074C55.0003 37.7493 54.6978 37.4681 54.3945 37.4681H49.8098C49.7885 37.4681 49.7663 37.4681 49.7449 37.4681C49.7449 37.4681 49.7449 37.4681 49.7235 37.4681V34.484C49.7671 34.484 49.7885 34.484 49.8098 34.484H54.3945C54.697 34.484 55.0003 34.1807 55.0003 33.856C55.0003 33.5313 54.6978 33.2502 54.3945 33.2502H49.8098C49.7885 33.2502 49.7663 33.2502 49.7235 33.2502V30.2416C49.7671 30.2416 49.7885 30.2416 49.8098 30.2416H54.3945C54.697 30.2416 55.0003 29.9391 55.0003 29.6144C55.0003 29.3118 54.6978 29.0085 54.3945 29.0085H49.8098C49.7885 29.0085 49.7663 29.0085 49.7235 29.0085V26C49.7671 26 49.7885 26 49.8098 26H54.3945C54.697 26 55.0003 25.7181 55.0003 25.3941C55.0003 25.0702 54.6978 24.7661 54.3945 24.7661H49.8098C49.7885 24.7661 49.7663 24.7661 49.7449 24.7661C49.7449 24.7661 49.7449 24.7661 49.7235 24.7661V21.779C49.7671 21.779 49.7885 21.779 49.8098 21.779H54.3945C54.697 21.779 55.0003 21.4978 55.0003 21.1731C55.0003 20.8484 54.6978 20.5451 54.3945 20.5673H49.8098C49.7885 20.5459 49.7663 20.5459 49.7235 20.5673V17.5373C49.7671 17.5373 49.7885 17.5373 49.8098 17.5373H54.3945C54.697 17.5373 55.0003 17.2562 55.0003 16.9315C55.0003 16.6068 54.6978 16.3257 54.3945 16.3257H49.8098C49.7885 16.3257 49.7663 16.3257 49.7449 16.3257C49.7449 16.3257 49.7449 16.3257 49.7235 16.3257V13.2957C49.7671 13.3171 49.7885 13.3171 49.8098 13.2957H54.3945C54.697 13.3171 55.0003 13.0138 55.0003 12.6899C55.0003 12.3659 54.6978 12.084 54.3945 12.084H49.8098C49.7885 12.084 49.7663 12.084 49.7449 12.084C49.7449 12.084 49.7449 12.084 49.7235 12.084V8.90204C49.7235 6.91111 48.123 5.28764 46.1336 5.28764H42.9332C42.9332 5.26625 42.9332 5.24409 42.9332 5.20131V0.63193C42.9546 0.263691 42.5658 -0.061002 42.1983 0.026092C41.9171 0.069639 41.7223 0.350785 41.7223 0.63193V5.19902C41.7223 5.24257 41.7223 5.26396 41.7223 5.28535H38.7161C38.7161 5.26396 38.7161 5.2418 38.7161 5.19902V0.63193C38.7161 0.263691 38.3264 -0.061002 37.959 0.026092C37.6992 0.069639 37.483 0.350785 37.483 0.63193V5.19902C37.483 5.24257 37.483 5.26396 37.483 5.28535H34.4989C34.4989 5.26396 34.4989 5.2418 34.4989 5.19902V0.63193C34.4989 0.263691 34.1092 -0.061002 33.7418 0.026092C33.4828 0.069639 33.2666 0.350785 33.2666 0.63193V5.19902C33.2666 5.24257 33.2666 5.26396 33.2666 5.28535H30.2595C30.2595 5.26396 30.2595 5.2418 30.2595 5.19902V0.63193C30.2595 0.263691 29.8707 -0.061002 29.5032 0.026092C29.2434 0.069639 29.0272 0.350785 29.0272 0.63193V5.19902C29.0272 5.24257 29.0272 5.26396 29.0272 5.28535H26.0217C26.0217 5.26396 26.0217 5.2418 26.0217 5.19902V0.63193C26.0431 0.263691 25.6321 -0.061002 25.286 0.026092C25.0056 0.069639 24.7894 0.350785 24.81 0.63193V5.19902C24.81 5.24257 24.81 5.26396 24.81 5.28535H21.8045C21.8045 5.26396 21.8045 5.2418 21.8045 5.19902V0.63193C21.8252 0.263691 21.4149 -0.061002 21.0688 0.026092C20.7877 0.069639 20.5715 0.350785 20.5929 0.63193V5.19902C20.5929 5.24257 20.5929 5.26396 20.5929 5.28535H17.5652C17.5652 5.26396 17.5652 5.2418 17.5652 5.19902V0.63193C17.5866 0.263691 17.1977 -0.061002 16.8295 0.026092C16.5491 0.069639 16.3535 0.350785 16.3535 0.63193V5.19902C16.3535 5.24257 16.3535 5.26396 16.3535 5.28535H13.3472C13.3472 5.26396 13.3472 5.2418 13.3472 5.19902V0.63193C13.3472 0.285082 13.0226 -0.03961 12.6765 0.00393702ZM8.93601 6.49703H46.1336C47.4744 6.49703 48.5126 7.55743 48.5126 8.89975V46.1072C48.5126 47.4488 47.4744 48.51 46.1336 48.51H8.93601C7.59446 48.51 6.55697 47.4488 6.55697 46.1072V8.89975C6.5562 7.5582 7.59446 6.49703 8.93601 6.49703ZM12.6123 12.081C12.3311 12.1245 12.1149 12.4057 12.1149 12.6868V42.3186C12.1149 42.6433 12.4175 42.9245 12.72 42.9245H42.3266C42.6513 42.9245 42.9325 42.6433 42.9325 42.3186V12.6876C42.9325 12.3629 42.6513 12.0817 42.3266 12.0817H12.72C12.72 12.0817 12.6994 12.0817 12.6765 12.0817C12.6558 12.081 12.6337 12.081 12.6123 12.081ZM13.3472 13.2934H41.7216V41.712H13.3472V13.2934Z" fill="#FF7844"/>
<path d="M66.8804 42.8246V33.7768V23.233V12.6893H72.9185H77.4237C80.3212 12.6893 82.8076 13.7174 84.8826 15.7925C86.9577 17.8676 87.9858 20.3538 87.9858 23.2514C87.9858 26.149 86.9577 28.6353 84.8826 30.6916C82.8076 32.7479 80.3213 33.7761 77.4237 33.7761H72.9185V42.8239L66.8804 42.8246ZM72.9185 27.7575L77.4237 27.7762C78.6762 27.7762 79.7418 27.3275 80.6203 26.4489C81.4989 25.5703 81.9476 24.5047 81.9476 23.2523C81.9476 22.0185 81.4989 20.953 80.6203 20.0557C79.7417 19.1584 78.6761 18.7097 77.4237 18.7097H72.9185V23.2336V27.7575ZM90.603 42.8246L90.5843 12.653H100.38C103.277 12.653 106.137 13.6625 108.212 15.7376C110.287 17.8126 111.129 19.7567 111.129 22.6544V23.589C111.129 25.8324 110.493 27.4774 109.222 29.272C107.951 31.0666 106.885 31.5901 104.904 32.3378L111.708 42.825H104.343L96.6408 31.0476V42.825L90.603 42.8246ZM96.6225 27.1593L100.941 27.178C102.193 27.178 102.829 26.8602 103.707 25.9816C104.586 25.1029 104.904 24.0934 104.904 22.8409C104.904 21.6071 104.586 20.7846 103.707 19.8873C102.829 18.99 101.259 18.6722 100.006 18.6722H96.6224L96.6225 27.1593ZM114.513 42.8246V12.6903H120.551V42.8246H114.513ZM138.011 12.5401L137.992 12.6149C140.086 12.6149 142.049 13.0074 143.9 13.8113C145.75 14.6151 147.377 15.6994 148.779 17.064L144.479 21.3636C142.666 19.569 140.516 18.6717 138.03 18.6717C135.506 18.6717 133.356 19.569 131.58 21.3636C129.804 23.1582 128.907 25.308 128.907 27.813C128.907 30.3367 129.804 32.4865 131.58 34.2624C133.356 36.0384 135.506 36.9357 138.03 36.9357C140.553 36.9357 142.703 36.0384 144.498 34.2438L148.798 38.5434C147.396 39.9267 145.769 41.011 143.918 41.8149C142.068 42.6188 140.105 43.0113 138.011 43.0113C133.824 43.0113 130.234 41.5158 127.262 38.5434C124.291 35.571 122.795 31.9818 122.795 27.7948C122.795 23.6079 124.29 20.0182 127.262 17.0271C130.235 14.0361 133.824 12.5401 138.011 12.5401ZM151.022 12.6903H169.099V18.7098H157.06V24.748H166.089V30.7675H157.06V36.7869H169.099V42.8251H157.06H151.022L151.022 12.6903ZM171.903 42.8246V33.7768V23.233V12.6893H177.941H182.446C185.344 12.6893 187.83 13.7174 189.905 15.7925C191.98 17.8676 193.008 20.3538 193.008 23.2514C193.008 26.149 191.98 28.6353 189.905 30.6916C187.83 32.7479 185.344 33.7761 182.446 33.7761H177.941V42.8239L171.903 42.8246ZM177.941 27.7575L182.446 27.7762C183.699 27.7762 184.764 27.3275 185.643 26.4489C186.521 25.5703 186.97 24.5047 186.97 23.2523C186.97 22.0185 186.521 20.953 185.643 20.0557C184.764 19.1584 183.699 18.7097 182.446 18.7097H177.941V23.2336V27.7575ZM210.095 12.5401L210.076 12.6149C212.17 12.6149 214.133 13.0074 215.984 13.8113C217.834 14.6151 219.461 15.6994 220.863 17.064L216.563 21.3636C214.75 19.569 212.6 18.6717 210.114 18.6717C207.59 18.6717 205.44 19.569 203.664 21.3636C201.888 23.1582 200.991 25.308 200.991 27.813C200.991 30.3367 201.888 32.4865 203.664 34.2624C205.44 36.0384 207.59 36.9357 210.114 36.9357C212.637 36.9357 214.787 36.0384 216.582 34.2438L220.881 38.5434C219.479 39.9267 217.853 41.011 216.002 41.8149C214.151 42.6188 212.189 43.0113 210.095 43.0113C205.907 43.0113 202.318 41.5158 199.346 38.5434C196.374 35.571 194.878 31.9818 194.878 27.7948C194.878 23.6079 196.374 20.0182 199.346 17.0271C202.319 14.0361 205.908 12.5401 210.095 12.5401Z" fill="white"/>
</svg>
